<?xml version="1.0" encoding="UTF-8"?>
<!DOCTYPE svg PUBLIC "-//W3C//DTD SVG 1.1//EN" "http://www.w3.org/Graphics/SVG/1.1/DTD/svg11.dtd">
<!-- Creator: CorelDRAW 2018 (64 Bit Versão de avaliação) -->
<svg xmlns="http://www.w3.org/2000/svg" xml:space="preserve" width="210mm" height="297mm" version="1.1" style="shape-rendering:geometricPrecision; text-rendering:geometricPrecision; image-rendering:optimizeQuality; fill-rule:evenodd; clip-rule:evenodd"
viewBox="0 0 21000 29700"
 xmlns:xlink="http://www.w3.org/1999/xlink">
 <defs>
  <style type="text/css">
   <![CDATA[
    .fil6 {fill:#3F403F}
    .fil5 {fill:#6CA489}
    .fil2 {fill:#72706F}
    .fil4 {fill:#C4BDBA}
    .fil3 {fill:#C96D77}
    .fil0 {fill:#EB9682}
    .fil1 {fill:#F5E9E5}
   ]]>
  </style>
 </defs>
 <g id="Camada_x0020_1">
  <metadata id="CorelCorpID_0Corel-Layer"/>
  <g id="_2537580805008">
   <path class="fil0" d="M10544.6 3163.24c5614.22,0 10165.46,4551.24 10165.46,10165.46 0,5614.22 -4551.24,10165.46 -10165.46,10165.46 -5614.22,0 -10165.46,-4551.24 -10165.46,-10165.46 0,-5614.22 4551.24,-10165.46 10165.46,-10165.46z"/>
   <path class="fil1" d="M8843.67 7794.73c-85.38,134.7 -124.65,99.12 -302.94,197.96l-126.87 78.11c-272.17,431.1 -1072.28,554.99 -1789.54,3292.26 -57.83,220.73 -80.1,461.11 -179.68,664.53 -98.02,200.18 -239.34,367.17 -267.57,618.61 948.54,187.42 1036.57,268.86 1757.18,476.83 148.53,42.88 227.36,72.14 318.61,114.29 522.76,241.42 447.78,114.78 486.88,384.86 -229.99,106.7 -125.62,62.71 -339.43,-28.96 -561.3,-240.68 -1918.86,-741.76 -2382.96,-636.84 -50.78,285.26 -192.91,618.31 -187.06,851.21 454.39,13.37 832.26,92.63 1308.88,102.1 728.47,14.46 1060.95,-62.36 977.56,351.32 -372.62,50.1 -696.83,-101.09 -1144.19,-104.98 -205.64,-1.79 -411.5,-1.95 -617.06,-11.83 -695.43,-33.38 -497.64,18.8 -593.37,134 318.56,202.88 674.56,219.8 1030.01,493.17 174.7,235.91 157.77,-40.96 489.84,220.27 620.56,488.19 270.98,403.47 495.76,1031.78 64.53,180.38 151.5,401.5 189.78,582.54 46.62,27.7 465.73,639.9 516.52,705.92l774.39 633.2c22.55,624.55 84.43,594.16 -216.64,942.76 -218.07,252.46 -366.05,494.15 -351.93,918.94l2332.4 7.22c33.72,-809.88 -355.96,-961.85 -377.15,-1159.8 -28.01,-261.84 -16.44,-64.48 41.03,-142.53 165.82,-105.14 676.61,-68.24 931.21,-53.98 46.57,351.97 -129.83,313.79 -228.11,586.99 -80.21,222.96 -73.69,541.58 -27.47,781.3l2328.95 12.52c163.07,-791.89 -273.52,-921.33 -352.8,-1244.04 -22.35,-90.99 -24.09,-718.44 -2.29,-809.63 69.22,-289.52 908.96,-634.8 1144.72,-2146.74 43.65,-280.01 144.04,-378.74 248.34,-613.97 -12.9,-9.98 -36.04,-35.41 -43.21,-23.05 -0.21,0.36 -193.65,-69.85 -252.31,-201.24 288.19,-159.62 529.63,183.1 1195.66,-180.19 98.84,-97.06 268.57,-150 391.1,-193.46 399.78,-141.8 288.27,-120.39 340.12,-243.22 -79.25,-52.94 -18.56,-29.44 -140.56,-55.12 -71.71,-15.11 -86.8,-12.25 -161.23,-12.5l-955.32 40.03c-389.25,3.66 -808.25,199.69 -1108.98,74.93l-45.95 -159.49c315.76,-357.01 1845.63,-41.55 2359.06,-253.64 74.15,-254.47 -128.37,-699.22 -213.1,-893.61 -346.27,-12.25 -1154.23,217.53 -1529.02,334.38 -154.96,48.32 -136.76,62.56 -346.81,128.1l-617.33 248.82c-155.91,50.37 -162.06,38.4 -276.41,-22.15 123.87,-420.7 2115.21,-881.96 2671.83,-967.91 -45.49,-245.59 -267.24,-509.41 -377.27,-785.98 -90.11,-226.56 -73.6,-229.42 -107.76,-528.22 -22.74,-199.04 -87.63,-293.72 -146.9,-454.88 -158.92,-509.86 -317.6,-1056.73 -569.53,-1486.1 -132.26,-225.41 -245.17,-397.96 -406.59,-602.75 -139.88,-177.53 -350.8,-373.34 -472,-549.19l-353.82 -233.66c-703.2,-269.83 -897.06,-554.14 -2212.94,-637.72 -1340.4,-85.13 -1801.04,275.94 -2505.73,428.43z"/>
   <path class="fil2" d="M8484.02 17311.88c-50.79,-66.02 -469.9,-678.22 -516.52,-705.92 -211.41,129.33 -287.3,295.26 -483.18,449.28 -797.84,627.41 -1276.56,567.31 -2054.22,254.37 -394.46,-158.75 -737.24,-490.91 -989.59,-819.06 -304.78,-396.33 -317.98,-898.76 -185.02,-1441.8 344.62,-1407.43 1627.01,-1771.78 1518.39,-3897.95 -15.37,-300.88 -110.18,-474.22 -221.1,-694.47 -120.75,-239.72 -226.45,-310.75 -373.42,-507.29 -506.82,-311.83 -1076.41,-928.92 -2146.87,-433.03 -570.18,264.11 -1047.21,1261.93 -802.06,2100.1 277.99,950.41 1468.52,1133.02 1411.22,325.25 -16.89,-238.07 -118.82,-308.95 -245.99,-407.39 -836.63,-647.53 290.66,-1651.7 1133.29,-793.52 940.19,957.53 -663.77,2565.66 -1026,3513.54 -706.85,1849.68 -22.1,3152.51 1330.52,3923.99 772.61,440.68 1673.49,538.84 2515.93,149.76l119.2 -52.34c639.69,-308.34 625.13,-432.82 1021.65,-725.2l-6.23 -238.32z"/>
   <path class="fil0" d="M7967.5 16605.96c-38.28,-181.04 -125.25,-402.16 -189.78,-582.54 -224.78,-628.31 124.8,-543.59 -495.76,-1031.78 -332.07,-261.23 -315.14,15.64 -489.84,-220.27 -207.51,-51.22 -478.64,-164.07 -629.08,-234.36 -178.48,-83.41 -383.65,-172.37 -506.65,-266.42 -14.56,-235.93 200.6,-1200.66 360.96,-1314.21 59.59,-231.35 111.53,-106.38 69.06,-256.69l-347.48 29.64c5.79,-263.18 502.97,-1203.01 18.06,-2072.19 -181.24,-324.82 -120.73,-540.85 -577.63,-708.1 146.97,196.54 252.67,267.57 373.42,507.29 110.92,220.25 205.73,393.59 221.1,694.47 108.62,2126.17 -1173.77,2490.52 -1518.39,3897.95 -132.96,543.04 -119.76,1045.47 185.02,1441.8 252.35,328.15 595.13,660.31 989.59,819.06 777.66,312.94 1256.38,373.04 2054.22,-254.37 195.88,-154.02 271.77,-319.95 483.18,-449.28z"/>
   <path class="fil2" d="M7087.15 9720.68l-131.5 -178.77c-128.48,-298.68 -404.14,-1748.87 -29.81,-1808.93 14.6,-2.35 31.7,-6.67 47.89,-8.35 278.46,-28.92 -113.48,-7.8 94.88,-2.27 912.85,24.25 820.39,503.8 1472.12,270.33 178.29,-98.84 217.56,-63.26 302.94,-197.96 -276.34,-355.3 -1382.93,-766.95 -1820.58,-813.46l-669.39 -37.3c-283.61,33.91 -128.91,7.55 -202.61,85.53 -253.62,305.63 74.4,2220.87 241.46,2737.99 40.54,125.52 95.32,228.28 146.18,349.48 120.43,286.89 113.29,279.47 293.71,339.89 67.78,-189.79 207.73,-542.17 254.71,-736.18z"/>
   <path class="fil2" d="M13814.14 7602.17l-282.25 187.01 30.45 214.84 353.82 233.66c237.18,-29.64 522.38,-276.46 794.78,-385.09 174.91,-69.79 698.69,-289.38 866.06,-145.14 265.7,249.08 50.2,1344.53 -42.43,1640.83 -140.22,448.65 -522.75,842.75 -94.45,1446.44 345.6,-198.4 611.6,-1225.43 692.95,-1579.21 134.91,-586.63 162.1,-1579.61 95.07,-2217.16 -700.5,-86.23 -1223.55,142.62 -1832.47,346.04 -237.1,79.19 -352.78,187.63 -581.53,257.78z"/>
   <path class="fil3" d="M13814.14 7602.17c228.75,-70.15 344.43,-178.59 581.53,-257.78 608.92,-203.42 1131.97,-432.27 1832.47,-346.04 67.03,637.55 39.84,1630.53 -95.07,2217.16 -81.35,353.78 -347.35,1380.81 -692.95,1579.21 -428.3,-603.69 -45.77,-997.79 94.45,-1446.44 92.63,-296.3 308.13,-1391.75 42.43,-1640.83 -167.37,-144.24 -691.15,75.35 -866.06,145.14 -272.4,108.63 -557.6,355.45 -794.78,385.09 121.2,175.85 332.12,371.66 472,549.19 161.42,204.79 274.33,377.34 406.59,602.75 251.93,429.37 410.61,976.24 569.53,1486.1 668.45,111.55 1244.25,-3044.64 910.22,-3976.04 -606.08,-107.97 -1659.48,212.74 -2221.63,497.67 -258.86,131.2 -117.47,-33.04 -238.73,204.82z"/>
   <path class="fil4" d="M12552.96 12362.51c874.2,450.74 2099.06,-326.29 1785.7,-1506.97 -1359.98,-390.8 -2031.9,688.03 -1785.7,1506.97z"/>
   <path class="fil5" d="M12612.21 12253.28c363.42,214.68 952.78,134.63 1248.2,-96.42 261.35,-204.41 521.8,-763.94 392.98,-1226.39 -918.41,-320.9 -1836.78,391.78 -1641.18,1322.81z"/>
   <path class="fil5" d="M9383.74 11390.74c-152.37,109.62 -266.45,485.22 -573.43,289.12 -118.84,-75.91 -165.8,-217.41 -100.51,-394.13 120.24,-325.4 168.45,61.92 171.69,-356.46 -267.97,-106.87 -718.1,-93.69 -1054.9,-39.65 -111.15,693.18 215.8,1278.49 706,1455.23 207.87,74.94 839.34,135.76 977.75,-58.21 133.53,-187.17 -24.58,-744.89 -126.6,-895.9z"/>
   <path class="fil3" d="M7087.15 9720.68c160.23,-537.48 757.65,-1432.28 1326.71,-1649.88l126.87 -78.11c-651.73,233.47 -559.27,-246.08 -1472.12,-270.33 -208.36,-5.53 183.58,-26.65 -94.88,2.27 -16.19,1.68 -33.29,6 -47.89,8.35 -374.33,60.06 -98.67,1510.25 29.81,1808.93l131.5 178.77z"/>
   <path class="fil6" d="M11540.74 13712.86c109.18,-45.05 252.75,-160.16 412.92,-274.75 159.42,-114.05 285.58,-175.63 341.46,-374.54 -360.22,-159 -1527.27,-251.59 -1929.29,-146.71 -59.51,201.83 -210.63,123.53 -458,200.64l690.68 579.6c586.74,467.13 429.73,189.01 942.23,15.76z"/>
   <path class="fil4" d="M15628.81 14619.64c290.88,-67.31 595.58,-203.49 781.13,-304.06 38.29,-365.77 -3.07,-681.42 -110.49,-994.17 -114.5,-333.3 -100.49,-382.53 -303.24,-676.61 -556.62,85.95 -2547.96,547.21 -2671.83,967.91 114.35,60.55 120.5,72.52 276.41,22.15l617.33 -248.82c210.05,-65.54 191.85,-79.78 346.81,-128.1 374.79,-116.85 1182.75,-346.63 1529.02,-334.38 84.73,194.39 287.25,639.14 213.1,893.61 -513.43,212.09 -2043.3,-103.37 -2359.06,253.64l45.95 159.49c300.73,124.76 719.73,-71.27 1108.98,-74.93l955.32 -40.03c74.43,0.25 89.52,-2.61 161.23,12.5 122,25.68 61.31,2.18 140.56,55.12 -51.85,122.83 59.66,101.42 -340.12,243.22 -122.53,43.46 -292.26,96.4 -391.1,193.46z"/>
   <path class="fil2" d="M11540.74 13712.86c-512.5,173.25 -355.49,451.37 -942.23,-15.76l-690.68 -579.6c247.37,-77.11 398.49,1.19 458,-200.64l-602.93 117.47c108.48,456.17 1032.31,738.21 1148.61,1036.48 14.35,532.38 -142.89,837.18 -743.11,817.05 -688.68,-23.08 -696.89,-458.16 -1131.04,-486.58 20.89,348.73 841.4,947.52 1484.97,705.81 196.13,-73.66 122.1,-27.78 263.41,-140.08 193.74,-153.96 64.66,-112.34 280.32,-198.2 334.9,186.78 501.42,554.9 1111.93,356.59 347.66,-112.91 871.83,-393.79 894.49,-705.43 -417.23,-36.18 -436.17,430.59 -1107.65,466.6 -578.37,31 -808.04,-277.28 -784.9,-815.76 31.32,-76.9 211.6,-111.15 360.81,-357.95z"/>
   <path class="fil4" d="M6792.12 14771.37c-355.45,-273.37 -711.45,-290.29 -1030.01,-493.17 95.73,-115.2 -102.06,-167.38 593.37,-134 205.56,9.88 411.42,10.04 617.06,11.83 447.36,3.89 771.57,155.08 1144.19,104.98 83.39,-413.68 -249.09,-336.86 -977.56,-351.32 -476.62,-9.47 -854.49,-88.73 -1308.88,-102.1 -5.85,-232.9 136.28,-565.95 187.06,-851.21 -160.36,113.55 -375.52,1078.28 -360.96,1314.21 123,94.05 328.17,183.01 506.65,266.42 150.44,70.29 421.57,183.14 629.08,234.36z"/>
   <path class="fil4" d="M6017.35 12956.38c464.1,-104.92 1821.66,396.16 2382.96,636.84 213.81,91.67 109.44,135.66 339.43,28.96 -39.1,-270.08 35.88,-143.44 -486.88,-384.86 -91.25,-42.15 -170.08,-71.41 -318.61,-114.29 -720.61,-207.97 -808.64,-289.41 -1757.18,-476.83l-90.66 53.49c42.47,150.31 -9.47,25.34 -69.06,256.69z"/>
   <path class="fil1" d="M13489.44 11700.39c443.04,65.14 549.55,-191.95 380.44,-544.54 -126.09,-52.98 -235.84,-68.6 -416.21,-22.49 -154.48,292.83 -123.31,347.59 35.77,567.03z"/>
  </g>
 </g>
</svg>
